<?xml version="1.0" encoding="UTF-8" standalone="no"?>
<!-- Created with Inkscape (http://www.inkscape.org/) -->

<svg
   xmlns:dc="http://purl.org/dc/elements/1.1/"
   xmlns:cc="http://creativecommons.org/ns#"
   xmlns:rdf="http://www.w3.org/1999/02/22-rdf-syntax-ns#"
   xmlns:svg="http://www.w3.org/2000/svg"
   xmlns="http://www.w3.org/2000/svg"
   xmlns:sodipodi="http://sodipodi.sourceforge.net/DTD/sodipodi-0.dtd"
   xmlns:inkscape="http://www.inkscape.org/namespaces/inkscape"
   width="85.125"
   height="96.705101"
   id="svg2"
   version="1.1"
   inkscape:version="0.91 r13725"
   sodipodi:docname="logo_resized.svg">
  <defs
     id="defs4" />
  <sodipodi:namedview
     id="base"
     pagecolor="#ffffff"
     bordercolor="#666666"
     borderopacity="1.0"
     inkscape:pageopacity="0.0"
     inkscape:pageshadow="2"
     inkscape:zoom="0.41392593"
     inkscape:cx="-41.387796"
     inkscape:cy="224.69203"
     inkscape:document-units="px"
     inkscape:current-layer="layer1"
     showgrid="false"
     inkscape:window-width="1855"
     inkscape:window-height="1023"
     inkscape:window-x="65"
     inkscape:window-y="27"
     inkscape:window-maximized="1"
     units="ft"
     fit-margin-top="0"
     fit-margin-left="0"
     fit-margin-right="0"
     fit-margin-bottom="0" />
  <metadata
     id="metadata7">
    <rdf:RDF>
      <cc:Work
         rdf:about="">
        <dc:format>image/svg+xml</dc:format>
        <dc:type
           rdf:resource="http://purl.org/dc/dcmitype/StillImage" />
        <dc:title></dc:title>
      </cc:Work>
    </rdf:RDF>
  </metadata>
  <g
     inkscape:label="Layer 1"
     inkscape:groupmode="layer"
     id="layer1"
     transform="translate(-17.070049,-811.58368)">
    <path
       style="fill:#502d16;stroke:#000000;stroke-width:0.79087704;stroke-linecap:butt;stroke-linejoin:miter;stroke-miterlimit:4;stroke-dasharray:none;stroke-opacity:1"
       d="m 82.122013,811.98188 c -0.668983,0.0106 -1.331347,0.0647 -1.984536,0.15552 -2.197656,0.30535 -4.53808,1.00218 -6.125986,2.45896 -1.679506,1.54079 -2.517146,3.84835 -2.922544,6.01837 -0.161649,0.86525 -0.307236,1.7971 -0.357348,2.72205 -4.441993,-0.90792 -9.150173,-0.64066 -13.643121,0.0117 -5.455582,0.79233 -6.672506,0.71066 -10.379618,2.87683 -1.115665,0.65184 -4.282119,2.12558 -5.209649,3.00404 -1.338062,-1.0545 -3.252761,-1.76028 -4.830606,-2.32725 -2.45835,-0.88311 -5.395066,-1.37428 -7.874385,-0.54443 -2.526296,0.84556 -4.670366,1.58699 -7.173222,4.22613 -2.260472,2.38344 -3.185545,6.05894 -3.910977,9.17488 -0.563261,2.41972 -0.09846,5.08013 0.874233,7.38274 1.074107,2.54279 3.188997,4.62892 5.251742,6.56287 0.2549,0.23894 0.510545,0.52645 0.77212,0.81958 -1.565434,4.02856 -2.546171,8.30348 -2.814117,12.58146 -0.309124,4.93542 -0.13231,10.05643 1.454934,14.77102 1.415784,4.20549 3.978572,8.10693 7.000151,11.48667 3.415012,3.81974 7.647509,7.08105 12.251982,9.57211 4.396454,2.3786 9.227672,4.62913 14.293947,4.92382 5.579341,0.32452 11.101111,-1.721 16.335856,-3.55971 4.847377,-1.70267 9.644554,-3.83179 13.713246,-6.83206 3.681127,-2.71475 6.9107,-6.09084 9.335653,-9.84735 1.991499,-3.08557 3.139616,-6.62665 4.084042,-10.12273 0.89129,-3.2995 1.29357,-6.71621 1.45502,-10.11658 0.19033,-4.01138 0.0626,-8.06129 -0.58067,-12.03096 -0.63424,-3.91321 -1.525574,-7.85703 -3.209775,-11.48669 -1.355236,-2.9206 -3.182921,-5.69896 -5.430559,-8.08851 2.18065,-1.74255 2.597838,-5.53776 3.09481,-8.32175 0.338684,-1.89676 -0.09737,-3.87431 -0.580419,-5.74343 -0.49338,-1.90825 -1.061463,-3.9154 -2.335679,-5.47448 -1.18284,-1.44712 -2.856533,-2.60667 -4.664662,-3.27788 -1.84192,-0.68405 -3.882912,-1.00932 -5.889863,-0.97527 z"
       id="path3000"
       inkscape:connector-curvature="0"
       sodipodi:nodetypes="sssscsscsssssscsssssssssssscsssss" />
    <path
       style="fill:#a05a2c;stroke:#000000;stroke-width:0.39543852;stroke-linecap:butt;stroke-linejoin:miter;stroke-miterlimit:4;stroke-dasharray:none;stroke-opacity:1"
       d="m 53.58867,859.4497 c -3.237233,1.56981 -5.726973,4.4442 -7.58436,7.38423 -1.661231,2.62978 -2.24779,5.76045 -2.91709,8.75163 -0.542312,2.42406 -1.222406,4.92938 -0.875138,7.38435 0.384479,2.71864 1.576351,5.38218 3.208767,7.65785 1.573785,2.19377 3.717772,4.0944 6.125995,5.4699 2.284844,1.30479 4.946251,2.04535 7.584565,2.46129 2.205475,0.34788 4.562928,0.58872 6.709402,0 2.770039,-0.7598 5.362615,-2.36413 7.292546,-4.37573 1.890604,-1.97037 2.779858,-4.63685 3.792398,-7.11085 1.048171,-2.5605 2.126814,-5.19572 2.333868,-7.93112 0.27059,-3.57559 0.154819,-7.41656 -1.458616,-10.66616 -1.393888,-2.80793 -4.055642,-4.99332 -6.709378,-6.83748 -2.340918,-1.62676 -4.994751,-3.14934 -7.876211,-3.55555 -3.209428,-0.45188 -6.743871,-0.0301 -9.626748,1.36764 z"
       id="path3002"
       inkscape:connector-curvature="0"
       sodipodi:nodetypes="aaaaaaaaaaaaaaa" />
    <path
       style="fill:#000000;stroke:#000000;stroke-width:0.19771926px;stroke-linecap:butt;stroke-linejoin:miter;stroke-opacity:1"
       d="m 51.546844,870.11585 c 0.06441,-1.71901 2.866477,-2.40672 4.667449,-2.73498 1.647637,-0.30014 4.19148,-0.5789 4.958995,0.82053 1.133846,2.06685 -0.805482,5.71992 -3.208742,6.29028 -2.564245,0.60862 -6.510421,-1.89739 -6.417702,-4.37583 z"
       id="path3004"
       inkscape:connector-curvature="0"
       sodipodi:nodetypes="aaaaa" />
    <path
       style="fill:none;stroke:#000000;stroke-width:0.79087704;stroke-linecap:butt;stroke-linejoin:miter;stroke-miterlimit:4;stroke-dasharray:none;stroke-opacity:1"
       d="m 58.103099,874.16849 4.375698,17.1692"
       id="path3006"
       inkscape:connector-curvature="0"
       sodipodi:nodetypes="cc" />
    <path
       style="fill:none;stroke:#000000;stroke-width:0.79087704;stroke-linecap:butt;stroke-linejoin:miter;stroke-miterlimit:4;stroke-dasharray:none;stroke-opacity:1"
       d="m 49.796576,891.17476 c 0,0 8.543848,1.41908 12.543624,0.2734 5.470134,-1.5669 14.002306,-9.29869 14.002306,-9.29869"
       id="path3008"
       inkscape:connector-curvature="0"
       sodipodi:nodetypes="csc" />
    <path
       style="fill:#000000;fill-opacity:1;stroke:#000000;stroke-width:0.19771926px;stroke-linecap:butt;stroke-linejoin:miter;stroke-opacity:1"
       d="m 44.545753,858.6293 c -1.414788,-0.33213 -3.044645,1.16254 -3.500511,2.46132 -0.31735,0.90413 0.140724,2.07788 0.875101,2.73496 0.580028,0.51902 1.547768,0.69574 2.333748,0.54703 0.953126,-0.18042 2.097553,-0.75679 2.333649,-1.64105 0.390895,-1.4639 -0.480594,-3.73587 -2.041987,-4.10226 z"
       id="path3010"
       inkscape:connector-curvature="0"
       sodipodi:nodetypes="aaaaaa" />
    <path
       style="fill:#000000;fill-opacity:1;stroke:#000000;stroke-width:0.19771926px;stroke-linecap:butt;stroke-linejoin:miter;stroke-opacity:1"
       d="m 71.091629,850.42447 c -0.972306,-0.45571 -2.358744,-0.088 -3.208822,0.54701 -0.579162,0.4329 -0.866105,1.21994 -0.875141,1.91444 -0.01286,0.98182 0.355879,2.11373 1.166857,2.73503 0.841808,0.64487 2.266013,1.05436 3.208831,0.54696 0.987059,-0.53131 1.232178,-1.94309 1.1668,-3.00849 -0.0624,-1.01746 -0.48618,-2.27894 -1.458525,-2.73495 z"
       id="path3012"
       inkscape:connector-curvature="0"
       sodipodi:nodetypes="aaaaaaa" />
    <path
       style="fill:#deaa87;stroke:#000000;stroke-width:0.19771926px;stroke-linecap:butt;stroke-linejoin:miter;stroke-opacity:1"
       d="m 35.210979,832.37416 c 0,0 -4.515815,-0.64937 -6.417701,0.2735 -1.96925,0.95547 -3.170465,3.02861 -4.083981,4.92279 -0.856397,1.77562 -1.424348,3.80947 -1.166849,5.74336 0.199407,1.49727 2.041973,4.1021 2.041973,4.1021 z"
       id="path3014"
       inkscape:connector-curvature="0"
       sodipodi:nodetypes="cssscc" />
    <path
       style="fill:#deaa87;stroke:#000000;stroke-width:0.23324947px;stroke-linecap:butt;stroke-linejoin:miter;stroke-opacity:1"
       d="m 75.049322,823.10656 15.381988,7.88219 c 0,0 1.52256,-3.17588 1.831213,-4.85058 0.350002,-1.89813 0.975973,-4.01828 0,-5.76011 -0.874669,-1.56131 -2.793841,-2.77824 -4.760929,-3.33474 -2.659219,-0.75278 -6.019885,-0.90233 -8.423565,0.30304 -2.292322,1.14972 -4.028707,5.7602 -4.028707,5.7602 z"
       id="path3016"
       inkscape:connector-curvature="0"
       sodipodi:nodetypes="ccaaaac" />
    <path
       style="fill:#28170b;stroke:#000000;stroke-width:0.19771926px;stroke-linecap:butt;stroke-linejoin:miter;stroke-opacity:1"
       d="m 35.210979,856.44124 c 0,0 7.551095,-2.31053 10.793331,-4.37583 1.478749,-0.94186 3.076556,-2.01935 3.792266,-3.55525 1.012969,-2.17368 0.291744,-7.11088 0.291744,-7.11088 0,0 -1.476652,4.27624 -2.917114,6.01663 -3.137211,3.79103 -11.960227,9.02533 -11.960227,9.02533 z"
       id="path3018"
       inkscape:connector-curvature="0"
       sodipodi:nodetypes="caacac" />
    <path
       style="fill:#28170b;stroke:#000000;stroke-width:0.19771926px;stroke-linecap:butt;stroke-linejoin:miter;stroke-opacity:1"
       d="m 61.173288,840.03187 c 0,0 0.139363,5.14525 2.04213,6.56378 4.040165,3.01181 15.460694,0.82026 15.460694,0.82026 0,0 -10.485018,-0.59958 -14.585581,-3.2817 -1.437617,-0.9405 -2.917243,-4.10234 -2.917243,-4.10234 z"
       id="path3020"
       inkscape:connector-curvature="0"
       sodipodi:nodetypes="cacac" />
  </g>
</svg>
